<svg width="78" height="99" viewBox="0 0 78 99" xmlns="http://www.w3.org/2000/svg"><title>rubyonrails_logo</title><g fill="#A62C39" fill-rule="evenodd"><path d="M4.43 81.258v16.76h4.275v-4.365l3.89 3.89h6.56l-5.202-5.202s3.742-.06 4.026-5.473c0-4.966-3.748-5.61-8.076-5.61H4.43zm4.48 4.546h3.686v2.986H8.91v-2.986zM27.41 81.325c-2.34-.013-5.586.204-5.586 4.615v11.648h4.388v-2.85h4.252v2.782h4.41V85.306c0-3.83-4.255-3.98-6.536-3.98-.285 0-.593.002-.927 0zm-1.13 4.207h4.116v4.592H26.28v-4.592zM39.27 81.337h4.54V97.37h-4.54zM48.565 81.55v16.033H59.49v-4.257h-6.455V81.478l-4.47.07zM73.963 81.407v4.328h-7.307v1.56h3.122c1.63 0 5.037-.07 5.037 5.038 0 5.108-2.34 5.392-7.095 5.392h-5.746v-3.902h6.598c1.986 0 2.096-.647 2.096-1.21 0-.564-1.016-.826-3.082-.826-2.065 0-5.896-1.015-5.896-4.988 0-3.974 1.986-5.464 5.96-5.464 3.972 0 6.313.07 6.313.07z"/><g><path d="M8.41 76.512h37.743S37.78 57.5 39.91 40.046c2.128-17.452 15.89-25.398 23.695-26.25 7.804-.85 12.06 3.974 12.06 3.974l1.704-2.554S66.16 3.864 51.97 5.14C37.78 6.42 27.99 15.784 21.89 27.135 15.788 38.486 12.24 46.43 9.83 58.35 7.416 70.27 8.41 76.512 8.41 76.512zM.89 57.5l7.378.566-1.277 7.38-6.95-.853.85-7.094zM12.525 41.89l1.986-5.533-6.525-2.554-2.13 5.96 6.67 2.128zM21.748 22.878l3.83-4.54-4.965-3.264-3.973 4.398 5.108 3.406zM31.822 5.283l3.405 4.115 4.683-2.696-3.406-3.83-4.682 2.41zM48.423.6l.85 4.116 5.82-.142-.57-3.69-6.1-.283z"/><path d="M68.146 5l-.142 2.554 3.973 2.128.85-1.277L68.148 5zM67.295 15.925v2.128l3.83.426v-1.704l-3.83-.85zM55.092 17.77l1.845 3.405 2.695-2.128-.567-2.27-3.973.993zM49.274 22.168l2.838 4.257-1.702 2.98-4.115-4.54 2.98-2.697zM43.6 33.945l-1.846 3.69 4.825 4.114 1.134-4.683-4.115-3.122zM41.612 46.857l-.283 4.966 5.958 2.554-.284-4.682-5.392-2.838zM43.315 64.45l1.42 5.11 7.52.425-2.697-5.534h-6.243z"/></g></g></svg>